<svg xmlns="http://www.w3.org/2000/svg" viewBox="0 0 512 512" width="32" height="32">
  <!-- Main circular time machine body -->
  <circle cx="256" cy="256" r="200" fill="#121212" stroke="#1DB954" stroke-width="12"/>

  <!-- Clock face -->
  <circle cx="256" cy="256" r="170" fill="#121212" stroke="#1DB954" stroke-width="4"/>

  <!-- Clock hands (hour and minute) -->
  <line x1="256" y1="256" x2="200" y2="150" stroke="#1DB954" stroke-width="10" stroke-linecap="round"/>
  <line x1="256" y1="256" x2="320" y2="256" stroke="#1DB954" stroke-width="8" stroke-linecap="round"/>

  <!-- Center dot -->
  <circle cx="256" cy="256" r="15" fill="#1DB954"/>

  <!-- Music notes -->
  <g transform="translate(160, 170) scale(0.8)">
    <path d="M80 32l-64 .0002v128h32V80h32l.0002-48z" fill="#1DB954"/>
    <path d="M48 160c-17.673 0-32 14.327-32 32s14.327 32 32 32 32-14.327 32-32-14.327-32-32-32z" fill="#1DB954"/>
  </g>

  <g transform="translate(270, 190) scale(0.8)">
    <path d="M80 32l-64 .0002v128h32V80h32l.0002-48z" fill="#1DB954"/>
    <path d="M48 160c-17.673 0-32 14.327-32 32s14.327 32 32 32 32-14.327 32-32-14.327-32-32-32z" fill="#1DB954"/>
  </g>

  <!-- Time swirl elements -->
  <path d="M256 56c46.4 0 89.6 19.2 120.8 52.8" fill="none" stroke="#1DB954" stroke-width="8" stroke-linecap="round"/>
  <path d="M256 86c38.4 0 73.6 16 99.2 42.4" fill="none" stroke="#1DB954" stroke-width="6" stroke-linecap="round"/>

  <path d="M256 456c-46.4 0-89.6-19.2-120.8-52.8" fill="none" stroke="#1DB954" stroke-width="8" stroke-linecap="round"/>
  <path d="M256 426c-38.4 0-73.6-16-99.2-42.4" fill="none" stroke="#1DB954" stroke-width="6" stroke-linecap="round"/>
</svg>