<svg xmlns="http://www.w3.org/2000/svg" width="32" height="32" viewBox="0 0 512 512"><circle cx="256" cy="256" r="200" fill="#121212" stroke="#1DB954" stroke-width="12"/><circle cx="256" cy="256" r="170" fill="#121212" stroke="#1DB954" stroke-width="4"/><path stroke="#1DB954" stroke-linecap="round" stroke-width="10" d="m256 256-56-106"/><path stroke="#1DB954" stroke-linecap="round" stroke-width="8" d="M256 256h64"/><circle cx="256" cy="256" r="15" fill="#1DB954"/><path fill="#1DB954" d="M224 195.6h-51.2V298h25.6v-64H224zM198.4 298c-14.138 0-25.6 11.462-25.6 25.6s11.462 25.6 25.6 25.6 25.6-11.462 25.6-25.6-11.462-25.6-25.6-25.6M334 215.6h-51.2V318h25.6v-64H334zM308.4 318c-14.138 0-25.6 11.462-25.6 25.6s11.462 25.6 25.6 25.6 25.6-11.462 25.6-25.6-11.462-25.6-25.6-25.6"/><path fill="none" stroke="#1DB954" stroke-linecap="round" stroke-width="8" d="M256 56c46.4 0 89.6 19.2 120.8 52.8"/><path fill="none" stroke="#1DB954" stroke-linecap="round" stroke-width="6" d="M256 86c38.4 0 73.6 16 99.2 42.4"/><path fill="none" stroke="#1DB954" stroke-linecap="round" stroke-width="8" d="M256 456c-46.4 0-89.6-19.2-120.8-52.8"/><path fill="none" stroke="#1DB954" stroke-linecap="round" stroke-width="6" d="M256 426c-38.4 0-73.6-16-99.2-42.4"/></svg>